<svg xmlns="http://www.w3.org/2000/svg" viewBox="0 0 1200 680" role="img" aria-labelledby="title desc">
  <title id="title">丽丽血糖 App 设计概览</title>
  <desc id="desc">手机中的血糖记录、趋势曲线、语音与拍照输入以及本地隐私保护</desc>
  <rect width="1200" height="680" fill="#f6f1e8"/>
  <circle cx="1020" cy="110" r="150" fill="#e6b7a4" opacity=".55"/>
  <circle cx="145" cy="580" r="185" fill="#9cc8be" opacity=".45"/>
  <text x="80" y="115" font-family="system-ui,sans-serif" font-size="52" font-weight="750" fill="#17302f">丽丽血糖 App</text>
  <text x="82" y="165" font-family="system-ui,sans-serif" font-size="24" fill="#5b6764">少一点操作，多一点连续、可信的数据</text>
  <g transform="translate(450 45)">
    <rect width="310" height="590" rx="48" fill="#17302f"/>
    <rect x="17" y="18" width="276" height="554" rx="34" fill="#fff"/>
    <rect x="112" y="30" width="86" height="9" rx="5" fill="#17302f" opacity=".25"/>
    <text x="42" y="90" font-family="system-ui,sans-serif" font-size="23" font-weight="700" fill="#17302f">你好，丽丽</text>
    <text x="42" y="121" font-family="system-ui,sans-serif" font-size="14" fill="#73807d">今天也要轻松记录</text>
    <rect x="36" y="150" width="238" height="118" rx="18" fill="#e5f0ec"/>
    <text x="54" y="182" font-family="system-ui,sans-serif" font-size="14" fill="#5b6764">早餐后 2 小时</text>
    <text x="54" y="232" font-family="system-ui,sans-serif" font-size="46" font-weight="750" fill="#0d6b63">120</text>
    <text x="164" y="232" font-family="system-ui,sans-serif" font-size="17" fill="#5b6764">mg/dL</text>
    <polyline points="46,380 82,357 116,367 150,319 187,340 222,292 260,315" fill="none" stroke="#e56b47" stroke-width="7" stroke-linecap="round" stroke-linejoin="round"/>
    <line x1="44" y1="395" x2="262" y2="395" stroke="#d7dedb" stroke-width="2"/>
    <rect x="36" y="442" width="238" height="68" rx="18" fill="#17302f"/>
    <text x="91" y="485" font-family="system-ui,sans-serif" font-size="21" font-weight="700" fill="#fff">记录血糖</text>
  </g>
  <g font-family="system-ui,sans-serif" fill="#17302f">
    <g transform="translate(815 245)"><circle r="42" fill="#fff"/><path d="M-10-15v28a10 10 0 0 0 20 0v-28a10 10 0 0 0-20 0m-10 25a20 20 0 0 0 40 0M0 30v13" fill="none" stroke="#0d6b63" stroke-width="6" stroke-linecap="round"/><text x="60" y="8" font-size="22" font-weight="650">语音辅助</text></g>
    <g transform="translate(815 365)"><circle r="42" fill="#fff"/><rect x="-23" y="-16" width="46" height="34" rx="6" fill="none" stroke="#e56b47" stroke-width="6"/><circle r="9" fill="none" stroke="#e56b47" stroke-width="5"/><text x="60" y="8" font-size="22" font-weight="650">拍照识别</text></g>
    <g transform="translate(815 485)"><circle r="42" fill="#fff"/><path d="M0-25 24-14v18c0 18-11 29-24 36C-13 33-24 22-24 4v-18z" fill="none" stroke="#0d6b63" stroke-width="6"/><path d="m-10 5 7 7L12-5" fill="none" stroke="#0d6b63" stroke-width="6" stroke-linecap="round"/><text x="60" y="8" font-size="22" font-weight="650">本地优先</text></g>
  </g>
  <text x="80" y="630" font-family="system-ui,sans-serif" font-size="18" fill="#5b6764">真实设备 · 人工确认 · 可调目标 · iOS 15</text>
</svg>
